<svg width="513" height="514" viewBox="0 0 513 514" fill="none" xmlns="http://www.w3.org/2000/svg">
<path d="M183.988 11.7189C319.62 -28.2006 461.934 49.3903 501.853 185.023C541.773 320.655 464.182 462.968 328.549 502.888C192.917 542.807 50.6046 465.216 10.6851 329.584C-29.2344 193.952 48.3556 51.6384 183.988 11.7189Z" fill="#FFD66F"/>
<mask id="mask0_201_115" style="mask-type:alpha" maskUnits="userSpaceOnUse" x="0" y="0" width="513" height="513">
<path d="M183.786 11.2806C319.419 -28.6388 461.731 48.952 501.651 184.584C541.57 320.216 463.98 462.529 328.348 502.449C192.716 542.368 50.4022 464.777 10.4827 329.145C-29.4365 193.513 48.1542 51.2 183.786 11.2806Z" fill="#FFD66F"/>
</mask>
<g mask="url(#mask0_201_115)">
<path d="M502.77 523L539.202 31.563C539.202 31.563 380.966 -38.021 202.067 164.208C23.1673 366.436 99.2947 512.128 99.2947 512.128L502.77 523Z" fill="#FFE090"/>
<path d="M256.202 -18L-41.7978 347L-112.798 33L256.202 -18Z" fill="#FFC739"/>
<path d="M567.999 615.635L601.499 163.635C601.499 163.635 455.999 99.6351 291.499 285.635C126.999 471.635 196.999 605.635 196.999 605.635L567.999 615.635Z" fill="#FFE6A4"/>
</g>
<path d="M305.51 35.7521C324.13 68.3943 363.986 132.412 315.214 166.802C266.441 201.193 128.07 243.833 162.135 309.895C117.465 282.955 87.9418 190.645 150.404 151.468C212.867 112.291 286.326 83.0651 305.51 35.7521Z" fill="#2A241D"/>
<path d="M364.253 204.067C382.873 236.709 422.73 300.726 373.957 335.117C325.185 369.508 186.813 412.148 220.878 478.21C176.208 451.269 146.685 358.96 209.147 319.783C271.61 280.605 345.069 251.38 364.253 204.067Z" fill="#2A241D"/>
</svg>
